<svg xmlns="http://www.w3.org/2000/svg" height="40" viewBox="0 96 960 960" width="40"><path d="M148.601 861.819v-75.913h84.979V495.985q0-86.151 50.742-153.822 50.743-67.671 133.801-86.454v-27.325q0-25.626 18.159-42.831Q454.44 168.348 480 168.348q25.56 0 43.718 17.205 18.159 17.205 18.159 42.831v27.325q83.297 18.783 134.333 86.335 51.036 67.551 51.036 153.941v289.921h84.392v75.913H148.601Zm331.558 120.877q-33.277 0-57.794-24.132-24.517-24.133-24.517-58.02h164.543q0 34.036-24.193 58.094t-58.039 24.058Z"/></svg>